<svg xmlns="http://www.w3.org/2000/svg" width="36.969" height="30.06"><path d="M36.97 3.57a15.433 15.433 0 01-4.355 1.2 7.637 7.637 0 003.336-4.2 15.185 15.185 0 01-4.817 1.84A7.588 7.588 0 0018.009 7.6a7.7 7.7 0 00.2 1.73A21.519 21.519 0 012.572 1.4a7.592 7.592 0 002.347 10.13 7.552 7.552 0 01-3.437-.95v.1a7.6 7.6 0 006.088 7.44 7.783 7.783 0 01-2 .26 6.712 6.712 0 01-1.424-.14 7.6 7.6 0 007.082 5.28 15.235 15.235 0 01-9.418 3.24 15.463 15.463 0 01-1.812-.1 21.5 21.5 0 0011.63 3.4c13.955 0 21.586-11.56 21.586-21.58 0-.33-.007-.66-.025-.98a15.423 15.423 0 003.781-3.93z" fill="#fff" fill-rule="evenodd"/></svg>